<svg width="24" height="19" viewBox="0 0 24 19" fill="none" xmlns="http://www.w3.org/2000/svg">
<path d="M2.4 0L4.8 4.75H8.4L6 0H8.4L10.8 4.75H14.4L12 0H14.4L16.8 4.75H20.4L18 0H21.6C22.26 0 22.8252 0.23275 23.2956 0.69825C23.766 1.16375 24.0008 1.72267 24 2.375V16.625C24 17.2781 23.7652 17.8374 23.2956 18.3029C22.826 18.7684 22.2608 19.0008 21.6 19H2.4C1.74 19 1.1752 18.7676 0.7056 18.3029C0.236 17.8382 0.0008 17.2789 0 16.625V2.375C0 1.72187 0.2352 1.16296 0.7056 0.69825C1.176 0.233541 1.7408 0.000791667 2.4 0ZM2.4 7.125V16.625H21.6V7.125H2.4Z" fill="#F5F5F5"/>
</svg>
