<svg width="24" height="21" viewBox="0 0 24 21" fill="none" xmlns="http://www.w3.org/2000/svg">
<path d="M0 1.5C0 1.10218 0.158036 0.720645 0.43934 0.43934C0.720645 0.158036 1.10218 0 1.5 0H22.5C22.8978 0 23.2794 0.158036 23.5607 0.43934C23.842 0.720645 24 1.10218 24 1.5C24 1.89782 23.842 2.27936 23.5607 2.56066C23.2794 2.84196 22.8978 3 22.5 3H1.5C1.10218 3 0.720645 2.84196 0.43934 2.56066C0.158036 2.27936 0 1.89782 0 1.5ZM0 10.5C0 10.1022 0.158036 9.72064 0.43934 9.43934C0.720645 9.15804 1.10218 9 1.5 9H22.5C22.8978 9 23.2794 9.15804 23.5607 9.43934C23.842 9.72064 24 10.1022 24 10.5C24 10.8978 23.842 11.2794 23.5607 11.5607C23.2794 11.842 22.8978 12 22.5 12H1.5C1.10218 12 0.720645 11.842 0.43934 11.5607C0.158036 11.2794 0 10.8978 0 10.5ZM1.5 18C1.10218 18 0.720645 18.158 0.43934 18.4393C0.158036 18.7206 0 19.1022 0 19.5C0 19.8978 0.158036 20.2794 0.43934 20.5607C0.720645 20.842 1.10218 21 1.5 21H22.5C22.8978 21 23.2794 20.842 23.5607 20.5607C23.842 20.2794 24 19.8978 24 19.5C24 19.1022 23.842 18.7206 23.5607 18.4393C23.2794 18.158 22.8978 18 22.5 18H1.5Z" fill="#F5F5F5"/>
</svg>
