<svg width="18" height="13" viewBox="0 0 18 13" fill="none" xmlns="http://www.w3.org/2000/svg">
<path d="M17.4705 0.443708C17.7964 0.739729 17.9866 1.14799 17.9993 1.57871C18.012 2.00944 17.8461 2.42738 17.5382 2.74064L7.95299 12.4918C7.79764 12.6495 7.61096 12.7758 7.40397 12.863C7.19699 12.9503 6.9739 12.9968 6.74789 12.9998C6.52187 13.0029 6.29752 12.9623 6.08808 12.8807C5.87864 12.799 5.68837 12.6778 5.5285 12.5243L0.453982 7.64871C0.155194 7.34063 -0.00746827 6.93314 0.00026353 6.51211C0.00799533 6.09108 0.185518 5.68936 0.495431 5.3916C0.805344 5.09384 1.22345 4.92327 1.66167 4.91585C2.09988 4.90842 2.52399 5.0647 2.84464 5.35177L6.69 9.0442L15.0799 0.508716C15.388 0.19559 15.8129 0.0128417 16.2612 0.000651252C16.7095 -0.0115392 17.1445 0.147826 17.4705 0.443708Z" fill="#6366F1"/>
</svg>
