<svg width="40" height="37" viewBox="0 0 40 37" fill="none" xmlns="http://www.w3.org/2000/svg">
<path d="M1.92 8.836C1.04 8.836 0 8.72 0 8.198C0 4.52 6.476 4.362 9.236 4.362C12.834 4.362 17.43 5.478 21.346 6.878C27.304 9.038 39.378 16.234 39.378 24.468C39.378 31.744 31.542 35.222 24.266 35.222C22.3086 35.1651 20.358 34.9646 18.43 34.622C18.31 35.064 18.23 35.382 17.95 36.302C17.4889 36.3957 17.0204 36.4486 16.55 36.46L15.632 36.382C15.032 35.662 14.832 34.504 14.592 33.264C10.956 31.146 8.594 29.346 7.516 28.106C6.596 27.146 5.556 25.866 5.556 24.628C5.556 23.99 5.956 23.428 6.876 22.792C8.756 21.392 11.154 20.632 15.072 19.95L15.152 18.314C15.192 17.914 15.592 13.636 16.512 12.836C17.99 14.036 18.15 15.274 18.27 17.114C18.31 17.914 18.35 18.752 18.47 19.632H19.03C21.828 19.632 30.384 20.35 30.384 24.388C30.384 25.348 28.984 27.146 27.624 27.146C27.0021 27.1345 26.3948 26.9555 25.866 26.628C26.464 25.946 27.344 25.348 27.584 24.828C26.784 23.868 22.468 22.75 19.31 22.75C18.9628 22.7407 18.6154 22.7541 18.27 22.79L18.31 31.546C19.588 32.346 21.148 32.424 22.146 32.424C26.546 32.424 35.658 31.666 35.658 24.548C35.658 17.512 26.664 12.076 19.948 9.518C15.353 7.70557 10.4555 6.78255 5.516 6.798C4.41258 6.7805 3.31132 6.90145 2.238 7.158C1.56 7.318 1.32 7.478 1.32 7.638C1.32 7.916 2.678 8.078 2.84 8.158C2.89683 8.19058 2.94478 8.23661 2.97965 8.29206C3.01453 8.34751 3.03525 8.41067 3.04 8.476C3.0299 8.5993 2.97258 8.71394 2.88 8.796C2.718 8.796 2.36 8.836 1.92 8.836ZM14.91 22.868C10.954 23.19 6.554 23.59 6.554 24.988C6.554 26.068 8.394 27.388 9.514 28.226C10.9958 29.3865 12.7153 30.206 14.55 30.626L14.91 22.868ZM35.192 4.958C35.1403 6.00186 35.1149 7.04686 35.116 8.092C35.116 8.636 35.116 9.258 35.134 9.958C35.058 10.31 34.552 10.348 34.298 10.464C34.1265 10.3713 33.9695 10.2541 33.832 10.116V5.194C33.832 4.666 33.85 4.124 33.85 3.306C33.85 2.896 33.85 2.43 33.832 1.866C33.832 1.516 33.89 1.186 34.106 0.408C34.1471 0.294389 34.2204 0.195251 34.3171 0.122767C34.4137 0.0502841 34.5294 0.00761378 34.65 0C35.096 0.116 35.544 0.31 35.7 0.68C35.232 2.062 35.272 3.578 35.192 4.958ZM34.494 4.804C35.272 4.842 36.206 4.88 37.626 4.88C38.17 4.88 38.794 4.88 39.492 4.862C39.844 4.936 39.884 5.444 40 5.696C39.9053 5.868 39.7887 6.024 39.65 6.164H34.728C34.204 6.164 33.658 6.146 32.844 6.146C32.434 6.146 31.966 6.146 31.404 6.164C31.052 6.168 30.722 6.11 29.944 5.894C29.8314 5.85112 29.7331 5.77732 29.6606 5.68108C29.5881 5.58484 29.5442 5.47008 29.534 5.35C29.65 4.902 29.846 4.454 30.214 4.298C31.596 4.766 33.112 4.726 34.494 4.804Z" fill="#6366F1"/>
</svg>
