<svg width="40" height="40" viewBox="0 0 40 40" fill="none" xmlns="http://www.w3.org/2000/svg">
<path d="M30.822 17.066C30.117 17.0593 29.4259 17.2618 28.8359 17.6478C28.2459 18.0338 27.7836 18.586 27.5074 19.2346C27.2311 19.8832 27.1533 20.5992 27.2839 21.292C27.4144 21.9849 27.7474 22.6235 28.2407 23.1271C28.734 23.6308 29.3656 23.9769 30.0555 24.1218C30.7455 24.2666 31.4629 24.2037 32.1172 23.941C32.7714 23.6782 33.3331 23.2275 33.7312 22.6456C34.1293 22.0638 34.3461 21.377 34.354 20.672C34.3603 20.2027 34.2738 19.7367 34.0994 19.3009C33.9249 18.8652 33.666 18.4682 33.3376 18.1328C33.0091 17.7975 32.6176 17.5304 32.1855 17.347C31.7535 17.1636 31.2894 17.0674 30.82 17.064M30.788 23.426C30.2341 23.4276 29.6922 23.2649 29.2309 22.9584C28.7695 22.652 28.4093 22.2156 28.196 21.7045C27.9827 21.1933 27.9258 20.6304 28.0324 20.0869C28.139 19.5434 28.4045 19.0437 28.7952 18.6511C29.1858 18.2585 29.6842 17.9905 30.2271 17.8812C30.7701 17.7718 31.3333 17.8259 31.8455 18.0367C32.3577 18.2475 32.7959 18.6054 33.1046 19.0652C33.4134 19.5251 33.5788 20.0661 33.58 20.62C33.5816 20.9878 33.5105 21.3522 33.371 21.6925C33.2314 22.0327 33.026 22.342 32.7666 22.6027C32.5072 22.8634 32.1989 23.0703 31.8594 23.2116C31.5198 23.3529 31.1558 23.4258 30.788 23.426ZM19.69 22.12H17.754V24.492H19.69C19.9711 24.4457 20.2266 24.301 20.411 24.0838C20.5953 23.8666 20.6965 23.5909 20.6965 23.306C20.6965 23.0211 20.5953 22.7455 20.411 22.5283C20.2266 22.311 19.9711 22.1664 19.69 22.12ZM19.69 16.868H17.754V19.208H19.69C19.9715 19.1676 20.229 19.0271 20.4152 18.8121C20.6015 18.5972 20.704 18.3224 20.704 18.038C20.704 17.7536 20.6015 17.4788 20.4152 17.2639C20.229 17.049 19.9715 16.9084 19.69 16.868ZM36.306 1.95742e-05H3.692C3.20773 -0.00155959 2.7279 0.0924608 2.28004 0.276691C1.83218 0.460921 1.42508 0.731738 1.08209 1.07361C0.739094 1.41549 0.466954 1.82171 0.281267 2.26897C0.0955794 2.71623 -2.57467e-06 3.19574 0 3.68002V36.31C0.000259689 36.7943 0.0961016 37.2738 0.282032 37.7209C0.467961 38.1681 0.740323 38.5742 1.0835 38.9158C1.42668 39.2575 1.83392 39.5281 2.28189 39.7121C2.72985 39.8961 3.20973 39.9899 3.694 39.988H36.32C37.2957 39.988 38.2314 39.6006 38.9214 38.9109C39.6115 38.2212 39.9995 37.2857 40 36.31V3.68402C40.0005 3.19941 39.9053 2.71946 39.7199 2.27174C39.5344 1.82401 39.2624 1.41733 38.9193 1.07503C38.5763 0.732725 38.169 0.461551 37.7209 0.277071C37.2728 0.0925912 36.7906 -0.00156097 36.306 1.95742e-05ZM13.344 27.75H9.546V22.324H7.084V27.752H3.184V13.754H7.078V18.976H9.538V13.756H13.344V27.75ZM30.79 27.812C29.4515 27.8131 28.1396 27.4378 27.0041 26.7292C25.8686 26.0205 24.9551 25.0069 24.368 23.804C24.3033 24.8726 23.8329 25.8762 23.053 26.6096C22.2731 27.343 21.2426 27.751 20.172 27.75H14.128V13.748H20.616C21.5933 13.8262 22.5097 14.2537 23.1976 14.9523C23.8854 15.6508 24.2988 16.5737 24.362 17.552C25.0551 16.0976 26.2226 14.9224 27.6725 14.2198C29.1224 13.5172 30.7683 13.3291 32.3393 13.6865C33.9103 14.0438 35.3129 14.9252 36.3163 16.1858C37.3197 17.4463 37.8641 19.0109 37.86 20.622C37.8675 22.51 37.1291 24.3245 35.8054 25.6707C34.4817 27.0169 32.6798 27.7858 30.792 27.81M22.252 20.62C22.8439 20.8133 23.358 21.192 23.718 21.7C23.613 21.0583 23.613 20.4038 23.718 19.762C23.3222 20.1833 22.8131 20.4812 22.252 20.62Z" fill="#6366F1"/>
</svg>
