<svg width="22" height="22" viewBox="0 0 22 22" fill="none" xmlns="http://www.w3.org/2000/svg">
<path d="M13.1161 8.79106V8.7945C13.0481 8.75119 12.9085 8.72987 12.7332 8.72987V13.145C12.98 13.145 13.134 13.0879 13.1917 12.991C13.2488 12.8982 13.2777 12.6225 13.2777 12.1818V9.5535C13.2777 9.25238 13.2743 9.05919 13.2488 8.97669C13.2275 8.88731 13.1876 8.82613 13.1196 8.79037L13.1161 8.79106ZM20.5459 0.0006875H1.48569C1.1025 0.0228811 0.740473 0.183693 0.467113 0.453131C0.193753 0.722569 0.0277276 1.08224 0 1.46506L0 20.5143C0.053625 21.3166 0.65175 21.9285 1.42519 21.9966C1.4394 21.9993 1.45383 22.0005 1.4685 22H20.5755C20.9648 21.9609 21.3259 21.7791 21.5891 21.4895C21.8523 21.1999 21.9989 20.8231 22.0007 20.4318V1.56819C21.9987 1.1722 21.8482 0.791377 21.579 0.501004C21.3097 0.21063 20.9413 0.0318463 20.5466 0L20.5459 0.0006875ZM4.39381 14.3234H2.64619V7.5735H4.39381V14.3234ZM10.3874 14.3234H8.86531V9.76525L8.24931 14.3199H7.161L6.52025 9.86563L6.51337 14.3199H4.98781V7.5735H7.24694C7.326 8.04994 7.39406 8.53325 7.458 9.01656L7.70481 10.7284L8.11319 7.5735H10.3868L10.3874 14.3234ZM14.9497 12.3255C14.9497 12.9236 14.9105 13.3279 14.8527 13.5355C14.8089 13.7227 14.7045 13.8902 14.5558 14.0119C14.4058 14.1372 14.2257 14.2211 14.0333 14.2553C13.8291 14.2945 13.5107 14.3234 13.0989 14.3234L13.0955 14.3199H10.9828V7.5735H12.2897C13.1278 7.5735 13.618 7.61681 13.9116 7.68831C14.2086 7.77081 14.4382 7.89594 14.5956 8.07538C14.7462 8.24038 14.8466 8.44388 14.8823 8.66594C14.9281 8.88135 14.9508 9.3099 14.9504 9.95156L14.9497 12.3255ZM19.4831 12.7586C19.4831 13.1704 19.4398 13.4606 19.4006 13.6682C19.3435 13.8724 19.2218 14.0367 19.0279 14.1873C18.8203 14.3412 18.5872 14.4093 18.3116 14.4093C18.1108 14.4093 17.853 14.3522 17.6887 14.2842C17.5057 14.1867 17.3447 14.0526 17.2157 13.8902L17.1119 14.3234H15.5361V7.5735L15.5183 7.57006H17.1689V9.76869C17.3046 9.60781 17.4597 9.48612 17.6344 9.40363C17.8368 9.32611 18.0515 9.28604 18.2682 9.28538C18.4759 9.28538 18.6801 9.31769 18.8732 9.39263C19.0307 9.45725 19.1668 9.56106 19.2741 9.69375C19.3566 9.80856 19.4102 9.94056 19.4391 10.0808C19.4638 10.2059 19.4783 10.4748 19.4783 10.8756V12.7593L19.4831 12.7586ZM17.4886 10.2706C17.3814 10.2706 17.3133 10.3098 17.2844 10.3813C17.2556 10.4562 17.2308 10.6459 17.2308 10.9539V12.7373C17.2308 13.0343 17.2556 13.2282 17.2844 13.31C17.3028 13.3488 17.3324 13.3812 17.3694 13.403C17.4065 13.4247 17.4492 13.4347 17.4921 13.4317C17.5993 13.4317 17.7389 13.3884 17.7677 13.3024C17.7934 13.2135 17.8065 13.0082 17.8069 12.6864L17.8358 12.683V10.9498C17.8358 10.6741 17.8214 10.4844 17.7822 10.3984C17.7389 10.3056 17.6034 10.2692 17.4921 10.2692L17.4886 10.2706Z" fill="#6366F1"/>
</svg>
