<svg width="28" height="28" viewBox="0 0 28 28" fill="none" xmlns="http://www.w3.org/2000/svg">
<path fill-rule="evenodd" clip-rule="evenodd" d="M1.16667 0C0.857247 0 0.560501 0.122917 0.341709 0.341709C0.122917 0.560501 0 0.857247 0 1.16667V26.8333C0 27.1428 0.122917 27.4395 0.341709 27.6583C0.560501 27.8771 0.857247 28 1.16667 28H26.8333C27.1428 28 27.4395 27.8771 27.6583 27.6583C27.8771 27.4395 28 27.1428 28 26.8333V1.16667C28 0.857247 27.8771 0.560501 27.6583 0.341709C27.4395 0.122917 27.1428 0 26.8333 0H1.16667ZM4.66667 9.33333H18.6667V7H4.66667V9.33333ZM21 9.33333H23.3333V7H21V9.33333ZM18.6667 15.1667H4.66667V12.8333H18.6667V15.1667ZM21 15.1667H23.3333V12.8333H21V15.1667ZM18.6667 21H4.66667V18.6667H18.6667V21ZM21 21H23.3333V18.6667H21V21Z" fill="#6366F1"/>
</svg>
