<svg width="120" height="32" viewBox="0 0 120 32" fill="none" xmlns="http://www.w3.org/2000/svg">
<path d="M79.8415 0V23.3095C82.7384 23.443 85.6274 23.605 88.5087 23.7956V28.7377C83.9391 28.4353 79.3649 28.2058 74.7879 28.0494V0H79.8415ZM120 0.00279147L113.419 15.1451L119.998 31.9958L119.991 31.9988C118.073 31.728 116.153 31.4703 114.231 31.2258L110.537 21.7683L106.807 30.3479C105.038 30.1539 103.267 29.9709 101.496 29.7989L107.911 15.0437L102.036 0.00302409H107.502L110.792 8.42023L114.45 0.00279147H120ZM57.4437 27.8044V0.00255885H71.5507V4.98905H62.4973V11.4513H69.3473V16.3934H62.4973V27.8035L57.4437 27.8044ZM38.5734 4.98928V0.00232622H54.2039V4.98905H48.9152V27.9396C47.2284 27.9838 45.5435 28.0354 43.8621 28.0985V4.98928H38.5734ZM21.2972 29.5351V0.00325671H35.3339V4.98952H26.3501V11.7439C28.414 11.7177 31.3486 11.6881 33.1744 11.6923V16.6348C30.889 16.6069 28.3092 16.666 26.3501 16.6853V24.1674C29.3425 23.9333 32.3372 23.7302 35.3339 23.5579V28.5004C30.6496 28.7687 25.97 29.1138 21.2972 29.5356M11.3838 18.1106L11.3836 0.00232622H16.4372V30.0013C14.5898 30.1899 12.7459 30.3903 10.9052 30.6024L5.05312 13.9164V31.317C3.36562 31.5351 1.68125 31.7627 0 32V0.00279147H4.80258L11.3838 18.1106ZM92.6777 29.0357V0.00279147H97.7316V29.45C96.049 29.3011 94.365 29.1636 92.6777 29.0357Z" fill="#6366F1"/>
</svg>
