<svg width="26" height="26" viewBox="0 0 26 26" fill="none" xmlns="http://www.w3.org/2000/svg">
<path fill-rule="evenodd" clip-rule="evenodd" d="M21.6667 6.73176e-09C22.772 -6.15647e-05 23.8355 0.422247 24.6397 1.18052C25.4439 1.93879 25.9279 2.97571 25.9928 4.07911L26 4.33333V21.6667C26.0001 22.772 25.5778 23.8355 24.8195 24.6397C24.0612 25.4439 23.0243 25.9279 21.9209 25.9928L21.6667 26H4.33333C3.22803 26.0001 2.16448 25.5778 1.36029 24.8195C0.556101 24.0612 0.0720669 23.0243 0.00722239 21.9209L6.73176e-09 21.6667V4.33333C-6.15647e-05 3.22803 0.422247 2.16448 1.18052 1.36029C1.93879 0.556101 2.97571 0.0720669 4.07911 0.00722239L4.33333 6.73176e-09H21.6667ZM7.94444 15.8889C7.40584 15.8889 6.88655 16.0896 6.48784 16.4517C6.08913 16.8138 5.8396 17.3114 5.78789 17.8476L5.77778 18.0556L5.78789 18.278C5.83985 18.8139 6.08949 19.3113 6.48817 19.6732C6.88686 20.0351 7.406 20.2356 7.94444 20.2356C8.48288 20.2356 9.00203 20.0351 9.40071 19.6732C9.7994 19.3113 10.049 18.8139 10.101 18.278L10.1111 18.07L10.101 17.8476C10.0493 17.3114 9.79976 16.8138 9.40105 16.4517C9.00234 16.0896 8.48305 15.8889 7.94444 15.8889ZM18.0556 15.8889C17.5169 15.8889 16.9977 16.0896 16.5989 16.4517C16.2002 16.8138 15.9507 17.3114 15.899 17.8476L15.8889 18.07C15.8892 18.6264 16.1035 19.1614 16.4875 19.5641C16.8715 19.9668 17.3957 20.2064 17.9514 20.2331C18.5072 20.2598 19.052 20.0717 19.4728 19.7077C19.8937 19.3438 20.1584 18.8318 20.2121 18.278L20.2222 18.0556C20.2222 17.4809 19.9939 16.9298 19.5876 16.5235C19.1813 16.1172 18.6302 15.8889 18.0556 15.8889ZM13 10.8333C12.4614 10.8334 11.9421 11.034 11.5434 11.3961C11.1447 11.7582 10.8952 12.2559 10.8434 12.792L10.8333 13.0144C10.8336 13.5709 11.0479 14.1059 11.4319 14.5086C11.8159 14.9113 12.3401 15.1508 12.8959 15.1775C13.4517 15.2043 13.9964 15.0162 14.4173 14.6522C14.8382 14.2882 15.1029 13.7763 15.1566 13.2224L15.1667 13C15.1667 12.4254 14.9384 11.8743 14.5321 11.4679C14.1257 11.0616 13.5746 10.8333 13 10.8333ZM7.94444 5.77778C7.40584 5.7778 6.88655 5.97844 6.48784 6.34056C6.08913 6.70268 5.8396 7.20032 5.78789 7.73644L5.77778 7.94444L5.78789 8.16689C5.83985 8.70282 6.08949 9.2002 6.48817 9.5621C6.88686 9.92399 7.406 10.1245 7.94444 10.1245C8.48288 10.1245 9.00203 9.92399 9.40071 9.5621C9.7994 9.2002 10.049 8.70282 10.101 8.16689L10.1111 7.95889L10.101 7.73644C10.0493 7.20032 9.79976 6.70268 9.40105 6.34056C9.00234 5.97844 8.48305 5.7778 7.94444 5.77778ZM18.0556 5.77778C17.5169 5.7778 16.9977 5.97844 16.5989 6.34056C16.2002 6.70268 15.9507 7.20032 15.899 7.73644L15.8889 7.95889C15.8892 8.51531 16.1035 9.0503 16.4875 9.453C16.8715 9.8557 17.3957 10.0952 17.9514 10.122C18.5072 10.1487 19.052 9.96061 19.4728 9.59664C19.8937 9.23266 20.1584 8.72072 20.2121 8.16689L20.2222 7.94444C20.2222 7.36981 19.9939 6.81871 19.5876 6.41238C19.1813 6.00605 18.6302 5.77778 18.0556 5.77778Z" fill="#1A1A1A"/>
</svg>
