<svg width="30" height="30" viewBox="0 0 30 30" fill="none" xmlns="http://www.w3.org/2000/svg">
<path fill-rule="evenodd" clip-rule="evenodd" d="M25 0C26.3261 0 27.5979 0.526784 28.5355 1.46447C29.4732 2.40215 30 3.67392 30 5V25C30 26.3261 29.4732 27.5979 28.5355 28.5355C27.5979 29.4732 26.3261 30 25 30H5C3.67392 30 2.40215 29.4732 1.46447 28.5355C0.526784 27.5979 0 26.3261 0 25V5C0 3.67392 0.526784 2.40215 1.46447 1.46447C2.40215 0.526784 3.67392 0 5 0H25ZM25 3.33333H5C4.55797 3.33333 4.13405 3.50893 3.82149 3.82149C3.50893 4.13405 3.33333 4.55797 3.33333 5V25C3.33333 25.442 3.50893 25.866 3.82149 26.1785C4.13405 26.4911 4.55797 26.6667 5 26.6667H25C25.442 26.6667 25.866 26.4911 26.1785 26.1785C26.4911 25.866 26.6667 25.442 26.6667 25V5C26.6667 4.55797 26.4911 4.13405 26.1785 3.82149C25.866 3.50893 25.442 3.33333 25 3.33333ZM9.16667 18.3333C9.78814 18.3334 10.3873 18.5649 10.8474 18.9827C11.3074 19.4005 11.5953 19.9747 11.655 20.5933L11.6667 20.85C11.6663 21.492 11.419 22.1093 10.976 22.574C10.5329 23.0386 9.92809 23.315 9.28681 23.3459C8.64552 23.3767 8.01695 23.1597 7.53133 22.7397C7.04571 22.3197 6.74029 21.729 6.67833 21.09L6.66667 20.8333C6.66667 20.1703 6.93006 19.5344 7.3989 19.0656C7.86774 18.5967 8.50363 18.3333 9.16667 18.3333ZM20.8333 18.3333C21.4548 18.3334 22.054 18.5649 22.514 18.9827C22.9741 19.4005 23.262 19.9747 23.3217 20.5933L23.3333 20.85C23.333 21.492 23.0857 22.1093 22.6427 22.574C22.1996 23.0386 21.5948 23.315 20.9535 23.3459C20.3122 23.3767 19.6836 23.1597 19.198 22.7397C18.7124 22.3197 18.407 21.729 18.345 21.09L18.3333 20.8333C18.3333 20.1703 18.5967 19.5344 19.0656 19.0656C19.5344 18.5967 20.1703 18.3333 20.8333 18.3333ZM15 12.5C15.6215 12.5 16.2207 12.7315 16.6807 13.1494C17.1407 13.5672 17.4287 14.1414 17.4883 14.76L17.5 15.0167C17.4997 15.6587 17.2524 16.276 16.8093 16.7406C16.3663 17.2053 15.7614 17.4817 15.1201 17.5125C14.4789 17.5434 13.8503 17.3263 13.3647 16.9064C12.879 16.4864 12.5736 15.8957 12.5117 15.2567L12.5 15C12.5 14.337 12.7634 13.7011 13.2322 13.2322C13.7011 12.7634 14.337 12.5 15 12.5ZM9.16667 6.66667C9.78814 6.6667 10.3873 6.8982 10.8474 7.31603C11.3074 7.73386 11.5953 8.30807 11.655 8.92667L11.6667 9.18333C11.6663 9.82536 11.419 10.4427 10.976 10.9073C10.5329 11.372 9.92809 11.6484 9.28681 11.6792C8.64552 11.7101 8.01695 11.493 7.53133 11.073C7.04571 10.6531 6.74029 10.0624 6.67833 9.42333L6.66667 9.16667C6.66667 8.50363 6.93006 7.86774 7.3989 7.3989C7.86774 6.93006 8.50363 6.66667 9.16667 6.66667ZM20.8333 6.66667C21.4548 6.6667 22.054 6.8982 22.514 7.31603C22.9741 7.73386 23.262 8.30807 23.3217 8.92667L23.3333 9.18333C23.333 9.82536 23.0857 10.4427 22.6427 10.9073C22.1996 11.372 21.5948 11.6484 20.9535 11.6792C20.3122 11.7101 19.6836 11.493 19.198 11.073C18.7124 10.6531 18.407 10.0624 18.345 9.42333L18.3333 9.16667C18.3333 8.50363 18.5967 7.86774 19.0656 7.3989C19.5344 6.93006 20.1703 6.66667 20.8333 6.66667Z" fill="#6366F1"/>
</svg>
