<svg width="26" height="26" viewBox="0 0 26 26" fill="none" xmlns="http://www.w3.org/2000/svg">
<path d="M22 15C22 14.7348 22.1054 14.4804 22.2929 14.2929C22.4804 14.1054 22.7348 14 23 14C23.2652 14 23.5196 14.1054 23.7071 14.2929C23.8946 14.4804 24 14.7348 24 15V22C24 23.0609 23.5786 24.0783 22.8284 24.8284C22.0783 25.5786 21.0609 26 20 26H4C2.93913 26 1.92172 25.5786 1.17157 24.8284C0.421427 24.0783 0 23.0609 0 22V6C0 4.93913 0.421427 3.92172 1.17157 3.17157C1.92172 2.42143 2.93913 2 4 2H11C11.2652 2 11.5196 2.10536 11.7071 2.29289C11.8946 2.48043 12 2.73478 12 3C12 3.26522 11.8946 3.51957 11.7071 3.70711C11.5196 3.89464 11.2652 4 11 4H4C3.46957 4 2.96086 4.21071 2.58579 4.58579C2.21071 4.96086 2 5.46957 2 6V22C2 22.5304 2.21071 23.0391 2.58579 23.4142C2.96086 23.7893 3.46957 24 4 24H20C20.5304 24 21.0391 23.7893 21.4142 23.4142C21.7893 23.0391 22 22.5304 22 22V15ZM11.76 15.678C11.6686 15.7771 11.5582 15.8568 11.4352 15.9121C11.3123 15.9674 11.1795 15.9974 11.0447 16.0001C10.9099 16.0028 10.776 15.9782 10.6509 15.9278C10.5259 15.8774 10.4123 15.8023 10.3171 15.7069C10.2218 15.6115 10.1468 15.4978 10.0966 15.3727C10.0464 15.2476 10.022 15.1136 10.0249 14.9788C10.0278 14.8441 10.0579 14.7113 10.1134 14.5884C10.169 14.4656 10.2487 14.3552 10.348 14.264L22.61 2H17C16.7348 2 16.4804 1.89464 16.2929 1.70711C16.1054 1.51957 16 1.26522 16 1C16 0.734784 16.1054 0.48043 16.2929 0.292893C16.4804 0.105357 16.7348 0 17 0H24C24.5304 0 25.0391 0.210714 25.4142 0.585786C25.7893 0.960859 26 1.46957 26 2V9C26 9.26522 25.8946 9.51957 25.7071 9.70711C25.5196 9.89464 25.2652 10 25 10C24.7348 10 24.4804 9.89464 24.2929 9.70711C24.1054 9.51957 24 9.26522 24 9V3.44L11.76 15.678Z" fill="#6366F1"/>
</svg>
