<svg width="15" height="15" viewBox="0 0 15 15" fill="none" xmlns="http://www.w3.org/2000/svg">
<path d="M3.65398 9.2423L2.28201 14.0442C2.19204 14.3443 2.3045 14.6744 2.5594 14.8545C2.8143 15.0421 3.15917 15.0496 3.41407 14.8695L7.5 12.1459L11.5859 14.8695C11.7126 14.9555 11.8626 15.0002 12.0156 14.9975C12.1686 14.9948 12.3171 14.9449 12.4406 14.8545C12.6955 14.6669 12.808 14.3443 12.718 14.0442L11.346 9.2423L14.7497 6.1811C14.9746 5.97852 15.0571 5.6634 14.9596 5.38579C14.8622 5.10068 14.6073 4.9056 14.3074 4.87559L10.034 4.53796L8.18224 0.441352C8.12307 0.309846 8.02721 0.198239 7.90618 0.119945C7.78515 0.0416501 7.64411 0 7.5 0C7.35589 0 7.21484 0.0416501 7.09382 0.119945C6.97279 0.198239 6.87693 0.309846 6.81776 0.441352L4.96598 4.53796L0.692621 4.87559C0.392737 4.8981 0.137835 5.10068 0.0403722 5.38579C-0.0570902 5.6709 0.025378 5.98603 0.250291 6.1811L3.65398 9.2423Z" fill="#6366F1"/>
</svg>
