<svg width="28" height="28" viewBox="0 0 28 28" fill="none" xmlns="http://www.w3.org/2000/svg">
<path d="M25.8222 28L16.0222 18.2C15.2444 18.8222 14.35 19.3148 13.3389 19.6778C12.3278 20.0407 11.2519 20.2222 10.1111 20.2222C7.28519 20.2222 4.89378 19.2433 2.93689 17.2853C0.980001 15.3274 0.00103786 12.936 8.23045e-07 10.1111C-0.00103621 7.28622 0.977927 4.89481 2.93689 2.93689C4.89585 0.978963 7.28726 0 10.1111 0C12.935 0 15.3269 0.978963 17.2869 2.93689C19.2469 4.89481 20.2253 7.28622 20.2222 10.1111C20.2222 11.2519 20.0407 12.3278 19.6778 13.3389C19.3148 14.35 18.8222 15.2444 18.2 16.0222L28 25.8222L25.8222 28ZM10.1111 17.1111C12.0556 17.1111 13.7086 16.4308 15.0702 15.0702C16.4319 13.7096 17.1122 12.0566 17.1111 10.1111C17.1101 8.16563 16.4298 6.51311 15.0702 5.15356C13.7107 3.794 12.0576 3.11319 10.1111 3.11111C8.16459 3.10904 6.51208 3.78985 5.15356 5.15356C3.79504 6.51726 3.11422 8.16978 3.11111 10.1111C3.108 12.0524 3.78882 13.7055 5.15356 15.0702C6.5183 16.435 8.17082 17.1153 10.1111 17.1111Z" fill="black"/>
</svg>
